{"title":"Never.Back.Down.-.The.Beatdown.[2011].DvdRip.XviD-KnÃ&amp;pou","uid":6679798,"size":1567498240,"categoryP":"video","categoryS":"movies","magnet":"?xt=urn:btih:27acc5b6143234eda7a1c4e67cd1f2a9a010af45&amp;dn=Never.Back.Down.-.The.Beatdown.%5B2011%5D.DvdRip.XviD-Kn%26Atilde%3B%26pou&amp;tr=udp%3A%2F%2Ftracker.openbittorrent.com%3A80&amp;tr=udp%3A%2F%2Fopen.demonii.com%3A1337&amp;tr=udp%3A%2F%2Ftracker.coppersurfer.tk%3A6969&amp;tr=udp%3A%2F%2Fexodus.desync.com%3A6969","seeders":0,"leechers":1,"uploader":"Jon.Pson","files":-1,"time":1316162920,"description":"Four fighters different backgrounds come together to train under an ex MMA rising star and then ultimately have to fight each other and the traitor in heir midst. \n\n\n\nGeneral\nComplete name                    : Never.Back.Down.-.The.Beatdown.[2011].DvdRip.XviD-KnÃƒÂ£\\Never.Back.Down.-.The.Beatdown.[2011].DvdRip.XviD-KnÃƒÂ£.avi\nFormat                           : AVI\nFormat/Info                      : Audio Video Interleave\nFile size                        : 1.46 GiB\nDuration                         : 1h 39mn\nOverall bit rate                 : 2 103 Kbps\nWriting application              : VirtualDubMod 1.5.4.1 (build 2178/release)\nWriting library                  : VirtualDubMod build 2178/release\n\nVideo\nID                               : 0\nFormat                           : MPEG-4 Visual\nFormat profile                   : Advanced Simple@L5\nFormat settings, BVOP            : 1\nFormat settings, QPel            : No\nFormat settings, GMC             : No warppoints\nFormat settings, Matrix          : Custom\nCodec ID                         : XVID\nCodec ID/Hint                    : XviD\nDuration                         : 1h 39mn\nBit rate                         : 1 712 Kbps\nWidth                            : 720 pixels\nHeight                           : 400 pixels\nDisplay aspect ratio             : 16:9\nFrame rate                       : 25.000 fps\nColor space                      : YUV\nChroma subsampling               : 4:2:0\nBit depth                        : 8 bits\nScan type                        : Progressive\nCompression mode                 : Lossy\nBits/(Pixel*Frame)               : 0.238\nStream size                      : 1.19 GiB (81%)\nWriting library                  : XviD 1.2.1 (UTC 2008-12-04)\n\nAudio\nID                               : 1\nFormat                           : AC-3\nFormat/Info                      : Audio Coding 3\nMode extension                   : CM (complete main)\nCodec ID                         : 2000\nDuration                         : 1h 39mn\nBit rate mode                    : Constant\nBit rate                         : 384 Kbps\nChannel(s)                       : 6 channels\nChannel positions                : Front: L C R, Side: L R, LFE\nSampling rate                    : 48.0 KHz\nBit depth                        : 16 bits\nCompression mode                 : Lossy\nStream size                      : 273 MiB (18%)\nAlignment                        : Split accross interleaves\nInterleave, duration             : 96 ms (2.40 video frames)\nInterleave, preload duration     : 96 ms\nLanguage                         : English\n\n","torrent":{"xt":"urn:btih:27acc5b6143234eda7a1c4e67cd1f2a9a010af45","amp;dn":"Never.Back.Down.-.The.Beatdown.%5B2011%5D.DvdRip.XviD-Kn%26Atilde%3B%26pou","amp;tr":["udp%3A%2F%2Ftracker.openbittorrent.com%3A80","udp%3A%2F%2Fopen.demonii.com%3A1337","udp%3A%2F%2Ftracker.coppersurfer.tk%3A6969","udp%3A%2F%2Fexodus.desync.com%3A6969"],"infoHash":"27acc5b6143234eda7a1c4e67cd1f2a9a010af45","infoHashBuffer":{"type":"Buffer","data":[39,172,197,182,20,50,52,237,167,161,196,230,124,209,242,169,160,16,175,69]},"announce":[],"urlList":[]}}